# xmcd
#
# Track frame offsets:
#	150
#	10195
#	21550
#	32777
#	42717
#	53425
#	62202
#	71310
#	81877
#	97615
#	108002
#	119287
#	128435
#	141027
#	150317
#	160475
#	176725
#	186052
#	197845
#	208640
#
# Disc length: 2924 seconds
# Revision: 5
# Processed by: cddbd v1.5.2PL0 Copyright (c) Steve Scherf et al.
# Submitted via: dBpowerAMP V12.0
#
DISCID=050b6a14
DTITLE=Various Artist - The Buck Owens Collection (1959-1990), Disc 2
DYEAR=1992
DGENRE=Country
TTITLE0=Buck Owens - I've Got a Tiger by the Tail
TTITLE1=Buck Owens - Cryin' Time
TTITLE2=Buck Owens - Memphis
TTITLE3=Buck Owens - Before You Go
TTITLE4=Buck Owens - Only You (Can Break My Heart)
TTITLE5=Buck Owens - Gonna Have Love
TTITLE6=Buck Owens - Buckaroo
TTITLE7=Buck Owens - Waitin' in Your Welfare Line
TTITLE8=Buck Owens - Dust on Mother's Bible
TTITLE9=Buck Owens - Think of Me
TTITLE10=Buck Owens - Open Up Your Heart
TTITLE11=Buck Owens - Sam's Place
TTITLE12=Buck Owens - Your Tender Loving Care
TTITLE13=Buck Owens - It Takes People Like You (To Make People Like Me)
TTITLE14=Buck Owens - How Long Will My Baby Be Gone
TTITLE15=Buck Owens - Sweet Rosie Jones
TTITLE16=Buddy Alan - Let the Whole World Keep on a Turnin'
TTITLE17=Buck Owens - I've Got You on My Mind Again
TTITLE18=Buck Owens - Who's Gonna Mow Your Grass?
TTITLE19=Buck Owens - Johnny B. Goode
EXTD=
EXTT0=
EXTT1=
EXTT2=
EXTT3=
EXTT4=
EXTT5=
EXTT6=
EXTT7=
EXTT8=
EXTT9=
EXTT10=
EXTT11=
EXTT12=
EXTT13=
EXTT14=
EXTT15=
EXTT16=
EXTT17=
EXTT18=
EXTT19=
PLAYORDER=
